<svg width="24" height="24" viewBox="0 0 24 24" fill="none" xmlns="http://www.w3.org/2000/svg">
<path d="M12 5C6.7125 5 3.3745 9.9995 2.2505 12C3.3765 14.004 6.71375 19 12 19C17.2867 19 20.6242 14.0295 21.7492 12.0372C20.625 10.0252 17.2867 5 12 5ZM12 3C20 3 24 12.0415 24 12.0415C24 12.0415 20 21 12 21C4 21 0 12 0 12C0 12 4 3 12 3Z" fill="white"/>
<path d="M12 9.99998C10.8973 9.99998 10 10.8972 10 12C10 13.1027 10.8973 14 12 14C13.1028 14 14 13.1027 14 12C14 10.8972 13.1028 9.99998 12 9.99998ZM12 7.99998C14.209 7.99998 16 9.79098 16 12C16 14.2092 14.209 16 12 16C9.79075 16 8 14.2092 8 12C8 9.79098 9.79075 7.99998 12 7.99998Z" fill="white"/>
</svg>
